<svg width="15" height="14" viewBox="0 0 15 14" fill="none" xmlns="http://www.w3.org/2000/svg">
<g id="fi_17981111" clip-path="url(#clip0_352_613)">
<path id="Vector" d="M10.5428 7.06328C10.5187 7.03922 10.4924 7.01516 10.4662 6.99328C10.1249 6.70672 9.4687 6.45078 8.62213 6.27359C8.48432 6.24734 8.35526 6.22109 8.2262 6.19922C8.2962 6.24516 8.3662 6.28672 8.43401 6.33047C8.49745 6.36766 8.55651 6.40484 8.61776 6.44203C8.82776 6.56234 9.03995 6.68266 9.25213 6.79422C9.38338 6.85984 9.51026 6.92547 9.63932 6.98672C9.67651 7.00422 9.71588 7.02172 9.75088 7.04141C9.84057 7.08516 9.93026 7.12672 10.0199 7.16609C10.0724 7.19016 10.1206 7.21203 10.1731 7.23391C10.2496 7.26672 10.3262 7.30172 10.4028 7.33453C10.4596 7.35641 10.5143 7.38047 10.5712 7.40234C10.6259 7.42422 10.6784 7.44609 10.7331 7.46797V7.45047C10.7331 7.38703 10.7199 7.32797 10.6893 7.26672C10.6849 7.26016 10.6828 7.25578 10.6828 7.25359C10.6806 7.24922 10.6784 7.24703 10.6762 7.24484C10.6434 7.18797 10.6215 7.16172 10.6128 7.15078C10.604 7.13984 10.6062 7.13984 10.6018 7.13547C10.5799 7.10922 10.5624 7.08516 10.5384 7.06547L10.5428 7.06328Z" fill="#555555"/>
<path id="Vector_2" d="M13.2575 6.0513C13.1875 5.98567 13.1109 5.92223 13.0366 5.8588C13.0234 5.84786 13.0103 5.83692 12.9994 5.82598C12.9359 5.77567 12.8747 5.72317 12.8091 5.67067C12.7981 5.66411 12.7894 5.65536 12.7784 5.6488C12.715 5.5963 12.6494 5.54598 12.5838 5.49567C12.5684 5.48473 12.5531 5.4738 12.5356 5.46067C12.4131 5.3688 12.2863 5.27911 12.1616 5.19161C12.1572 5.18942 12.1506 5.18505 12.1463 5.18286C12.0106 5.0888 11.875 4.99911 11.7372 4.9138C11.6213 4.83723 11.4966 4.76067 11.3719 4.68848C11.2559 4.6163 11.1356 4.54848 11.0175 4.48286C10.8775 4.40411 10.7375 4.32755 10.5888 4.25098C10.4597 4.18317 10.3306 4.11755 10.2016 4.0563C10.1644 4.0388 10.125 4.01911 10.0856 3.99942C10.0091 3.96442 9.93251 3.92723 9.85376 3.89223C8.84313 3.43286 7.8697 3.12005 7.10188 3.00411C7.09751 3.00411 7.09313 3.00411 7.08876 3.00192C7.02313 2.99317 6.95751 2.98442 6.89626 2.97786C6.86782 2.97567 6.83938 2.97348 6.81095 2.9713C6.73876 2.96473 6.66657 2.96036 6.60095 2.95817C6.55282 2.95598 6.5047 2.9538 6.45876 2.95598C6.42595 2.95598 6.39313 2.95817 6.36251 2.95817C6.31876 2.96036 6.2772 2.96473 6.23345 2.96911C6.20938 2.9713 6.18095 2.97348 6.15688 2.97786C6.09782 2.98661 6.04313 2.99755 5.99063 3.01067C5.97313 3.01723 5.95563 3.0238 5.93595 3.03036C5.90532 3.0413 5.87251 3.05223 5.84626 3.06536C5.84188 3.06755 5.83751 3.06973 5.83532 3.06973C5.82438 3.0763 5.80907 3.08286 5.79157 3.0938C5.76313 3.1113 5.73251 3.1288 5.71063 3.15067C5.6997 3.15942 5.69095 3.16817 5.6822 3.17692C5.65376 3.20536 5.62751 3.23817 5.61001 3.27098C5.60782 3.27317 5.60782 3.27536 5.60782 3.27755C5.59032 3.31255 5.57938 3.35411 5.57282 3.39348C5.57063 3.40661 5.57063 3.41755 5.56845 3.42848C5.56626 3.47223 5.56626 3.51598 5.57282 3.5663V3.57723C5.57282 3.57723 5.57501 3.57942 5.57501 3.58161C5.58595 3.65598 5.6122 3.73692 5.64938 3.82223C5.65157 3.8288 5.65595 3.83536 5.65813 3.84411C5.67782 3.88786 5.69751 3.92942 5.72595 3.97536C5.73907 3.99942 5.75438 4.02786 5.77188 4.05192C5.77845 4.06286 5.78501 4.0738 5.79376 4.08692C5.80688 4.1088 5.82001 4.13067 5.83751 4.15255C5.86376 4.19192 5.8922 4.23348 5.92282 4.27286C5.9272 4.27723 5.93157 4.2838 5.93376 4.28817C6.9597 4.3538 8.43188 4.8438 9.88657 5.59848C11.3391 6.35755 12.5838 7.28505 13.2225 8.08786H13.24C13.695 8.10317 14.0231 8.02223 14.1806 7.8538C14.1828 7.85161 14.185 7.84723 14.1872 7.84505C14.2069 7.82536 14.2222 7.79911 14.2375 7.77723C14.2375 7.77505 14.2397 7.77286 14.2419 7.77067C14.2441 7.76411 14.2441 7.75755 14.2484 7.75317C14.2616 7.72255 14.2725 7.68973 14.2769 7.65692C14.2791 7.6438 14.2813 7.63067 14.2813 7.61755C14.2856 7.58036 14.2878 7.54098 14.2834 7.49942C14.2375 7.1363 13.8831 6.62223 13.2619 6.0513H13.2575Z" fill="#555555"/>
<path id="Vector_3" d="M14.2374 8.03961C14.2199 8.05492 14.2024 8.07023 14.1806 8.08555C14.1718 8.09211 14.1631 8.0943 14.1521 8.10086C14.139 8.10961 14.1237 8.11617 14.1062 8.12492C14.0887 8.13148 14.0734 8.14242 14.0559 8.14898C14.0449 8.15336 14.0318 8.15992 14.0209 8.1643H14.0187C13.9924 8.17523 13.9596 8.18617 13.929 8.19711C13.9181 8.1993 13.9071 8.20148 13.8984 8.20367C13.8765 8.20805 13.8524 8.21461 13.8328 8.21898C13.8021 8.22555 13.7671 8.23211 13.7343 8.23867C13.719 8.24086 13.7037 8.24305 13.684 8.24523C13.6687 8.24742 13.6512 8.24961 13.6337 8.2518C13.6074 8.25398 13.579 8.25836 13.5506 8.26055C13.5353 8.26055 13.5178 8.26055 13.5003 8.26273C13.4521 8.26492 13.4062 8.26711 13.3559 8.26711C13.3515 8.26711 13.3471 8.2693 13.3428 8.2693C13.2837 8.2693 13.2268 8.26711 13.1656 8.26273C12.5553 8.22992 11.7809 8.04398 10.9234 7.73117C10.8731 7.71367 10.8228 7.69398 10.7681 7.66992C10.6346 7.61961 10.5034 7.56711 10.3699 7.51242C9.97182 7.34617 9.5715 7.15805 9.17119 6.94805C8.68557 6.6943 8.21525 6.41648 7.76463 6.11898C6.91807 5.55461 6.22463 4.95523 5.809 4.42586C5.77182 4.37555 5.73463 4.32742 5.70182 4.2793C5.69525 4.27055 5.69088 4.26398 5.6865 4.25523C5.67119 4.23336 5.66025 4.21148 5.64713 4.1918C5.64275 4.18523 5.63619 4.17648 5.63182 4.16773C5.6165 4.14586 5.60338 4.11961 5.58588 4.09555C5.57932 4.08242 5.57057 4.0693 5.56182 4.05617C5.55963 4.05398 5.55744 4.04961 5.55744 4.04742C5.53338 4.00805 5.51369 3.96867 5.49838 3.93367C5.49182 3.92273 5.48963 3.91398 5.48525 3.90305C5.48088 3.89211 5.4765 3.88117 5.47213 3.87242C5.46338 3.84836 5.45244 3.8243 5.44588 3.80461C5.43713 3.77836 5.43057 3.75648 5.424 3.73461C5.424 3.73242 5.42182 3.73023 5.42182 3.72805C5.41963 3.7193 5.41525 3.71055 5.41307 3.7018C5.39994 3.65148 5.39557 3.62305 5.39338 3.59461C5.39338 3.59461 5.39265 3.59315 5.39119 3.59023C5.39119 3.5793 5.39119 3.56836 5.389 3.55742C5.38682 3.53555 5.38463 3.51148 5.38244 3.4918C5.38244 3.48086 5.38463 3.46992 5.38463 3.45898V3.42836C5.38463 3.42836 5.38463 3.41086 5.38682 3.4043C5.11119 3.6668 4.77213 4.10648 4.57963 4.78898C4.55119 4.89617 4.53369 5.00992 4.53369 5.12148C4.53369 5.37961 4.61025 5.64867 4.76557 5.93086C4.79838 5.98992 4.83557 6.0468 4.87275 6.10367C5.10025 6.44055 5.39338 6.72711 5.58588 6.90648C5.6165 6.93711 5.64713 6.96555 5.67338 6.98742C5.89869 7.18867 6.1415 7.38555 6.39088 7.5693C6.54619 7.68305 6.7015 7.79242 6.85244 7.89305C7.29213 8.18617 7.70994 8.4268 8.04682 8.60617C8.119 8.64336 8.189 8.68055 8.25025 8.71336H8.25244L8.25463 8.71555C9.11432 9.17055 10.0156 9.54023 10.7943 9.75461C10.9124 9.78523 11.0284 9.81586 11.1421 9.84211C11.9143 10.0171 13.0081 10.1724 13.5746 9.48117C14.0253 8.9343 14.1937 8.40492 14.2528 8.02648C14.2506 8.02867 14.2462 8.03086 14.244 8.03305C14.2396 8.03523 14.2374 8.03742 14.2331 8.03961H14.2374Z" fill="#555555"/>
<path id="Vector_4" d="M1.0097 7.53445C1.02063 7.58914 1.04251 7.63945 1.07751 7.69195C1.08626 7.70727 1.09282 7.7182 1.10157 7.73133L1.11907 7.75539C1.11907 7.75539 1.13001 7.76852 1.13657 7.77508C1.16501 7.80789 1.18251 7.82539 1.19782 7.84289C1.24157 7.88664 1.29188 7.9282 1.35313 7.97414C1.41438 8.01789 1.4822 8.05945 1.5522 8.1032C1.61563 8.1382 1.68782 8.1732 1.75782 8.2082C2.69626 7.79258 4.22751 7.5432 5.86595 7.5432C5.93376 7.5432 5.99939 7.54539 6.06501 7.54539C6.03001 7.51914 5.99501 7.48852 5.9622 7.46227C5.93157 7.4382 5.90095 7.41414 5.87251 7.39008C5.76313 7.30039 5.65595 7.2107 5.55313 7.11883C5.4722 7.04445 5.38907 6.9657 5.30595 6.88477C5.28626 6.86508 5.26657 6.83883 5.24251 6.81914C5.18126 6.7557 5.12001 6.69445 5.06095 6.62664C5.03251 6.59602 5.00407 6.56102 4.97782 6.5282C4.92532 6.46695 4.8772 6.41008 4.82907 6.34664C4.79845 6.30727 4.7722 6.26352 4.74376 6.22195C4.70876 6.16945 4.66938 6.12133 4.63657 6.06445C4.09188 6.11039 3.57563 6.1782 3.1097 6.27445C2.26313 6.45164 1.60688 6.70758 1.26563 6.99414C1.23938 7.01602 1.21313 7.04008 1.19126 7.06195C1.1672 7.08383 1.14751 7.10789 1.13001 7.12758C1.12563 7.13633 1.11907 7.14289 1.11251 7.14945C1.10595 7.16039 1.08626 7.18664 1.05782 7.23258L1.04688 7.25227C1.0097 7.32664 0.994385 7.38789 0.994385 7.44914C0.994385 7.46445 0.996572 7.47977 0.996572 7.49727L1.00313 7.53227L1.0097 7.53445Z" fill="#555555"/>
<path id="Vector_5" d="M2.78154 10.7134C3.62154 10.9344 4.74592 11.0569 5.8681 11.0481C6.99248 11.0569 8.11685 10.9344 8.95248 10.7134C9.31779 10.6172 10.1403 10.3941 10.6128 9.88219C9.86248 9.66125 9.01592 9.30906 8.20435 8.8825C7.49342 8.99844 6.68623 9.05969 5.8681 9.05969C4.21217 9.05969 2.66779 8.80812 1.72935 8.38594C1.72498 8.38375 1.72279 8.38375 1.71842 8.38156C1.62654 8.33781 1.54123 8.29625 1.46467 8.25031C1.38592 8.20438 1.31154 8.16063 1.24592 8.11031C1.1781 8.06219 1.12123 8.01406 1.07092 7.96156C1.05342 7.94406 1.03373 7.92437 1.01623 7.90469C0.992166 7.87844 0.983416 7.86531 0.972479 7.85C0.963729 7.84125 0.954979 7.83031 0.948416 7.81719C0.941854 7.81063 0.933104 7.79531 0.922166 7.77781C0.900291 7.74281 0.878416 7.70344 0.863104 7.66406C0.738416 8.03156 0.642166 8.57625 0.788729 9.26969C0.989979 10.2366 2.28935 10.58 2.77717 10.7113L2.78154 10.7134ZM5.27967 10.0244L5.80467 9.49937C5.83748 9.46656 5.89654 9.46656 5.92935 9.49937L6.45435 10.0244C6.48717 10.0572 6.48717 10.1141 6.45435 10.1491L5.92935 10.6741C5.91404 10.6894 5.89217 10.6981 5.86592 10.6981C5.84404 10.6981 5.81998 10.6894 5.80248 10.6741L5.27748 10.1491C5.24467 10.1141 5.24467 10.0572 5.27748 10.0244H5.27967Z" fill="#555555"/>
<path id="Vector_6" d="M5.46838 10.0898L5.86746 9.69077L6.26653 10.0898L5.86746 10.4889L5.46838 10.0898Z" fill="#555555"/>
</g>
<defs>
<clipPath id="clip0_352_613">
<rect width="14" height="14" fill="white" transform="translate(0.5)"/>
</clipPath>
</defs>
</svg>
