<svg width="15" height="14" viewBox="0 0 15 14" fill="none" xmlns="http://www.w3.org/2000/svg">
<g id="fi_775334">
<g id="Group">
<g id="Group_2">
<g id="Group_3">
<path id="Vector" d="M7.74982 5.625C7.74982 5.97018 8.02965 6.24999 8.37481 6.24999C8.71997 6.24999 8.99981 5.97018 8.99981 5.625C8.99981 5.27981 8.72 5 8.37481 5C8.02979 5.00036 7.7502 5.27997 7.74982 5.625Z" fill="#555555"/>
<path id="Vector_2" d="M9.24982 4.75001C9.25015 5.02602 9.47382 5.24969 9.74983 5.25002C10.026 5.25002 10.2498 5.02615 10.2498 4.75001C10.2498 4.47386 10.026 4.25 9.74983 4.25C9.47368 4.25 9.24982 4.47386 9.24982 4.75001Z" fill="#555555"/>
<path id="Vector_3" d="M3.99852 3.01282C4.04025 3.00547 4.08247 3.0012 4.1248 3.00005C4.57304 3.0015 4.94741 3.34215 4.99102 3.78827C5.07521 3.76409 5.16225 3.75124 5.2498 3.75004C5.73362 3.75105 6.14728 4.09832 6.23207 4.57464C6.35742 4.52627 6.49047 4.50101 6.62481 4.50002C6.96631 4.50123 7.28855 4.65834 7.49981 4.92664C7.7978 4.54153 8.31364 4.3983 8.76755 4.57464C8.85234 4.09832 9.266 3.75105 9.74982 3.75004C9.8374 3.75124 9.92441 3.76409 10.0086 3.78827C10.0522 3.34212 10.4265 3.0015 10.8748 3.00005C10.9172 3.0012 10.9594 3.00547 11.0011 3.01282C11.001 3.00848 10.9998 3.00443 10.9998 3.00005C11.0007 2.876 11.0327 2.75412 11.0929 2.64568C10.7834 2.31641 10.5078 1.95681 10.2703 1.57233L10.2601 1.55707V1.55721C10.1254 1.34089 10.0218 1.14768 9.94404 0.990234C9.80535 1.08441 9.65472 1.15968 9.49615 1.21412C9.47901 1.22252 9.46093 1.22884 9.44228 1.23296C8.81237 1.42131 8.15715 1.51141 7.49978 1.50009C6.84247 1.51141 6.18734 1.42134 5.55745 1.23305C5.5385 1.22889 5.52015 1.22246 5.50273 1.21391C5.34441 1.15952 5.19402 1.08432 5.05552 0.990262C4.97776 1.14771 4.87413 1.34092 4.73951 1.55723V1.55712L4.72926 1.57238C4.49181 1.95689 4.21621 2.31649 3.90668 2.64573C3.96689 2.75421 3.99888 2.87605 3.99976 3.00011C3.99981 3.00443 3.99858 3.00848 3.99852 3.01282Z" fill="#555555"/>
<path id="Vector_4" d="M11.7498 3.25001C11.8879 3.25001 11.9998 3.13809 11.9998 3C11.9997 2.862 11.8879 2.75014 11.7498 2.75C11.6118 2.75 11.4998 2.86192 11.4998 3C11.4998 3.13809 11.6118 3.25001 11.7498 3.25001Z" fill="#555555"/>
<path id="Vector_5" d="M10.4998 3.87499C10.5 4.08201 10.6678 4.24977 10.8748 4.24998C11.0819 4.24998 11.2498 4.08209 11.2498 3.87499C11.2498 3.66789 11.0819 3.5 10.8748 3.5C10.6677 3.5 10.4998 3.66789 10.4998 3.87499Z" fill="#555555"/>
<path id="Vector_6" d="M7.49983 0.999988C8.94905 0.999988 9.69857 0.641457 9.7491 0.49998C9.69854 0.358531 8.94905 0 7.49983 0C6.03743 0 5.28766 0.365012 5.24933 0.503781C5.28766 0.635004 6.0374 0.999988 7.49983 0.999988Z" fill="#555555"/>
<path id="Vector_7" d="M4.74982 4.75001C4.74982 5.02615 4.97368 5.25002 5.24982 5.25002C5.52597 5.25002 5.74983 5.02615 5.74983 4.75001C5.74983 4.47386 5.52597 4.25 5.24982 4.25C4.97382 4.25033 4.75015 4.474 4.74982 4.75001Z" fill="#555555"/>
<path id="Vector_8" d="M6.8301 11.7885C7.26405 11.9391 7.73605 11.939 8.16994 11.7883C12.7046 10.1965 13.3914 5.22471 13.4859 4.18247C13.0377 4.03996 12.6107 3.83802 12.2162 3.58203C12.0845 3.68957 11.9198 3.74864 11.7498 3.74935C11.7454 3.74935 11.7414 3.74812 11.737 3.74806C11.7444 3.78979 11.7486 3.83201 11.7498 3.87436C11.7492 4.35736 11.3578 4.74879 10.8748 4.74936C10.8324 4.74821 10.7902 4.74395 10.7485 4.73659C10.7486 4.74097 10.7498 4.74499 10.7498 4.74936C10.7492 5.30141 10.3019 5.74878 9.74981 5.74935C9.66223 5.74815 9.57522 5.7353 9.49103 5.71112C9.45879 6.17154 9.14647 6.56463 8.70528 6.70015C8.26409 6.83566 7.78497 6.68566 7.49983 6.32272C7.21469 6.68566 6.73557 6.83566 6.29438 6.70015C5.85316 6.56463 5.54087 6.17154 5.50863 5.71112C5.42444 5.7353 5.33741 5.74815 5.24985 5.74935C4.69781 5.74878 4.25044 5.30138 4.24986 4.74936C4.24986 4.74499 4.25109 4.74097 4.25115 4.73659C4.20942 4.74395 4.1672 4.74821 4.12487 4.74936C3.64187 4.74879 3.25045 4.35736 3.24987 3.87436C3.25102 3.83201 3.25529 3.78979 3.26262 3.74806C3.2583 3.74814 3.25425 3.74935 3.24987 3.74935C3.07985 3.74861 2.91521 3.68955 2.7835 3.58203C2.38907 3.838 1.96212 4.03993 1.51404 4.18245C1.60966 5.22506 2.30154 10.1988 6.8301 11.7885Z" fill="#555555"/>
<path id="Vector_9" d="M9.40555 13.4325C9.44233 13.5652 9.36484 13.7027 9.23222 13.74C9.0996 13.7772 8.96185 13.7002 8.92411 13.5678C8.78012 13.053 8.79754 12.5065 8.97399 12.002C8.76842 12.0945 8.55768 12.1828 8.33502 12.261C7.79421 12.4487 7.20594 12.4488 6.66511 12.2613C6.44226 12.1831 6.23133 12.0947 6.02567 12.002C6.2021 12.5066 6.21949 13.053 6.07552 13.5678C6.05162 13.6541 5.98337 13.721 5.89664 13.7432C5.8099 13.7655 5.71789 13.7396 5.65541 13.6755C5.59293 13.6113 5.56955 13.5187 5.59405 13.4326C5.62574 13.3193 5.64778 13.2036 5.65987 13.0867C4.46593 13.2023 3.94766 13.3979 3.78961 13.5014C4.07158 13.6934 5.32351 14.0002 7.4998 14.0002C9.67609 14.0002 10.928 13.6934 11.21 13.5013C11.0519 13.3978 10.5336 13.2022 9.3393 13.0866C9.35163 13.2035 9.37381 13.3193 9.40555 13.4325Z" fill="#555555"/>
<path id="Vector_10" d="M4.12481 4.24998C4.33191 4.24998 4.4998 4.08209 4.4998 3.87499C4.4998 3.66789 4.33191 3.5 4.12481 3.5C3.91779 3.50022 3.75004 3.668 3.74982 3.87499C3.74982 4.08207 3.91771 4.24998 4.12481 4.24998Z" fill="#555555"/>
<path id="Vector_11" d="M5.99982 5.625C5.99982 5.97018 6.27965 6.24999 6.62481 6.24999C6.96997 6.24999 7.24981 5.97018 7.24981 5.625C7.24981 5.27981 6.97 5 6.62481 5C6.27979 5.00036 6.0002 5.27997 5.99982 5.625Z" fill="#555555"/>
<path id="Vector_12" d="M3.24982 3.25001C3.38788 3.25001 3.49982 3.13809 3.49982 3C3.49982 2.86192 3.38791 2.75 3.24982 2.75C3.11182 2.75014 2.99995 2.862 2.99982 3C2.99982 3.13809 3.11176 3.25001 3.24982 3.25001Z" fill="#555555"/>
</g>
</g>
</g>
</g>
</svg>
