<svg width="15" height="14" viewBox="0 0 15 14" fill="none" xmlns="http://www.w3.org/2000/svg">
<g id="fi_7183126">
<path id="Necklace" d="M12.75 1.74935C12.75 1.59464 12.6885 1.44627 12.5791 1.33687C12.4697 1.22747 12.3214 1.16602 12.1667 1.16602C12.012 1.16602 11.8636 1.22747 11.7542 1.33687C11.6448 1.44627 11.5833 1.59464 11.5833 1.74935C11.5833 2.83232 11.1531 3.87093 10.3874 4.6367C9.62158 5.40247 8.58297 5.83268 7.5 5.83268C6.41703 5.83268 5.37842 5.40247 4.61265 4.6367C3.84687 3.87093 3.41667 2.83232 3.41667 1.74935C3.41667 1.59464 3.35521 1.44627 3.24581 1.33687C3.13642 1.22747 2.98804 1.16602 2.83333 1.16602C2.67862 1.16602 2.53025 1.22747 2.42085 1.33687C2.31146 1.44627 2.25 1.59464 2.25 1.74935C2.25175 3.04004 2.72836 4.28496 3.589 5.24683C4.44963 6.20869 5.63411 6.82025 6.91667 6.96493V7.05827C6.20848 7.20282 5.57919 7.60519 5.1508 8.18736C4.72242 8.76953 4.52546 9.49002 4.5981 10.2092C4.67075 10.9283 5.00783 11.5948 5.54399 12.0796C6.08016 12.5643 6.7772 12.8327 7.5 12.8327C8.22279 12.8327 8.91984 12.5643 9.45601 12.0796C9.99217 11.5948 10.3292 10.9283 10.4019 10.2092C10.4745 9.49002 10.2776 8.76953 9.8492 8.18736C9.42081 7.60519 8.79152 7.20282 8.08333 7.05827V6.96493C9.36589 6.82025 10.5504 6.20869 11.411 5.24683C12.2716 4.28496 12.7483 3.04004 12.75 1.74935ZM7.5 10.4993C7.38463 10.4993 7.27185 10.4651 7.17592 10.401C7.07999 10.3369 7.00522 10.2458 6.96107 10.1392C6.91692 10.0327 6.90537 9.91537 6.92788 9.80221C6.95038 9.68906 7.00594 9.58512 7.08752 9.50354C7.1691 9.42196 7.27304 9.3664 7.3862 9.34389C7.49935 9.32138 7.61664 9.33293 7.72323 9.37709C7.82982 9.42124 7.92093 9.496 7.98502 9.59193C8.04912 9.68786 8.08333 9.80064 8.08333 9.91602C8.08333 10.0707 8.02187 10.2191 7.91248 10.3285C7.80308 10.4379 7.65471 10.4993 7.5 10.4993Z" fill="#555555"/>
</g>
</svg>
