<svg width="15" height="14" viewBox="0 0 15 14" fill="none" xmlns="http://www.w3.org/2000/svg">
<g id="fi_3369244" clip-path="url(#clip0_352_593)">
<path id="Vector" d="M8.17291 8.35505L6.14496 6.3271C6.09246 6.2746 6.01808 6.25039 5.94458 6.26147C4.04911 6.55124 4.13288 6.51893 4.05576 6.59601L1.97735 8.67442C1.88615 8.76563 1.88588 8.91312 1.97735 9.00459L5.49542 12.5227C5.58662 12.6139 5.73412 12.6141 5.82558 12.5227C8.09162 10.2566 7.9529 10.4225 7.96962 10.3145L8.23853 8.55542C8.24962 8.48192 8.22541 8.40755 8.17291 8.35505ZM5.87779 10.2937C5.78665 10.3849 5.63871 10.3845 5.54792 10.2937L4.15551 8.90134C4.06451 8.81034 4.06451 8.66246 4.15551 8.57146C4.2468 8.48046 4.39438 8.48046 4.48538 8.57146L5.87779 9.96387C5.96908 10.0549 5.96908 10.2027 5.87779 10.2937ZM4.29282 11.9801C4.38394 12.0712 4.38409 12.2191 4.29297 12.3102L2.67151 13.9317C2.58075 14.0225 2.43282 14.0229 2.34164 13.9317L0.568315 12.1584C0.477228 12.0673 0.477228 11.9196 0.568315 11.8285L2.18977 10.207C2.28089 10.1159 2.42856 10.1158 2.51967 10.207C3.10753 10.7948 3.69771 11.385 4.29282 11.9801ZM14.4318 2.16824L11.8715 4.72848C11.7805 4.81948 11.6323 4.81939 11.5414 4.72848L9.77153 2.95865C9.68053 2.86736 9.68053 2.71978 9.77153 2.62849L12.3318 0.0682497C12.4231 -0.0227499 12.5706 -0.0227499 12.6616 0.0682497L14.4318 1.83837C14.5235 1.93013 14.5219 2.07806 14.4318 2.16824ZM13.4302 4.48669L13.2665 4.32312C13.1753 4.23207 13.0277 4.23209 12.9366 4.32321L12.2014 5.05838C11.9275 5.33223 11.4842 5.33112 11.2115 5.05838L9.44165 3.28856C9.1683 3.01521 9.1683 2.57199 9.44165 2.29864L10.1768 1.56347C10.2679 1.47239 10.2679 1.32469 10.1769 1.23357L10.0133 1.06986C9.92206 0.978858 9.77447 0.978858 9.68318 1.06986L8.02215 2.73089C7.96994 2.7831 7.94573 2.85689 7.95623 2.92981L8.11694 4.0253L7.23436 4.90759C7.14336 4.99888 7.14292 5.1469 7.23436 5.23776C9.35249 7.34174 9.24959 7.33396 9.42739 7.33396C9.59656 7.33396 9.57771 7.24856 10.4844 6.3735L11.5679 6.54325C11.6417 6.55492 11.7164 6.53071 11.7692 6.47792L13.4302 4.81688C13.5212 4.72556 13.5212 4.57798 13.4302 4.48669ZM9.59244 5.41477C9.74 5.56232 9.63348 5.81289 9.42736 5.81289C9.26027 5.81289 9.22308 5.69168 8.72999 5.21235C8.63756 5.12252 8.63899 4.97348 8.72999 4.88219C8.82128 4.79119 8.96886 4.79119 9.06015 4.88219L9.59244 5.41477Z" fill="#555555"/>
</g>
<defs>
<clipPath id="clip0_352_593">
<rect width="14" height="14" fill="white" transform="translate(0.5)"/>
</clipPath>
</defs>
</svg>
