<svg width="71" height="71" viewBox="0 0 71 71" fill="none" xmlns="http://www.w3.org/2000/svg">
<circle cx="35.5" cy="35.5" r="35.5" fill="#6C4ED9"/>
<g clip-path="url(#clip0_67_1932)">
<path d="M25.6694 31.7539C23.5217 31.7539 21.7745 33.5011 21.7745 35.6488C21.7745 37.7964 23.5217 39.5436 25.6694 39.5436C27.817 39.5436 29.5642 37.7964 29.5642 35.6488C29.5642 33.5011 27.817 31.7539 25.6694 31.7539ZM25.6694 37.4261C24.6894 37.4261 23.892 36.6288 23.892 35.6488C23.892 34.6687 24.6894 33.8714 25.6694 33.8714C26.6494 33.8714 27.4467 34.6687 27.4467 35.6488C27.4467 36.6288 26.6494 37.4261 25.6694 37.4261Z" fill="white"/>
<path d="M32.5664 40.9531C30.4188 40.9531 28.6716 42.7003 28.6716 44.848C28.6716 46.9955 30.4188 48.7427 32.5664 48.7427C34.7141 48.7427 36.4613 46.9955 36.4613 44.848C36.4613 42.7003 34.7141 40.9531 32.5664 40.9531ZM32.5664 46.6252C31.5864 46.6252 30.7891 45.8279 30.7891 44.8479C30.7891 43.8679 31.5864 43.0706 32.5664 43.0706C33.5465 43.0706 34.3437 43.8679 34.3437 44.8479C34.3438 45.8279 33.5465 46.6252 32.5664 46.6252Z" fill="white"/>
<path d="M53.0245 40.9196C53.0175 40.9127 53.0105 40.9059 53.0034 40.8992L49.3372 37.4396C51.3895 35.8878 52.3166 33.141 51.4735 30.5999C47.4987 18.6082 32.2251 14.8038 23.1242 23.7671C16.3082 30.4802 16.3718 41.3044 22.8388 47.97C28.6485 53.9581 37.803 54.799 44.5596 50.3763C47.7236 48.3058 46.269 43.3773 42.4828 43.3773C39.655 43.3773 39.1798 39.4236 41.8509 38.7466L48.31 45.5918C48.3168 45.5989 48.3235 45.606 48.3305 45.613C49.6253 46.9107 51.7286 46.9142 53.0268 45.6159C54.3248 44.318 54.3248 42.217 53.0245 40.9196ZM39.3444 44.2447C40.1951 45.0508 41.3096 45.4947 42.4828 45.4947C44.1739 45.4947 44.8114 47.681 43.4 48.6046C37.4865 52.4756 29.4549 51.7484 24.3585 46.4955C18.6424 40.604 18.6761 31.1492 24.6336 25.2892C32.6166 17.4368 45.9687 20.722 49.4636 31.2664C50.0558 33.0511 49.3158 34.9904 47.7637 35.9548L41.8827 30.4052C42.2388 28.6957 41.7456 26.8935 40.4536 25.6016C38.832 23.9799 33.7233 23.1716 31.5093 22.9311C30.8378 22.8579 30.2692 23.4256 30.3422 24.0981C30.5847 26.3207 31.3883 31.4178 33.0128 33.0424C34.3057 34.3352 36.1088 34.8273 37.817 34.4713L40.2942 37.0966C37.6563 38.5287 37.1207 42.1374 39.3444 44.2447ZM34.51 31.5451C33.7122 30.7472 32.9993 27.7127 32.6229 25.2117C35.124 25.588 38.1585 26.301 38.9563 27.0988C40.1848 28.3273 40.1851 30.3162 38.9563 31.5451C37.7306 32.771 35.7412 32.7763 34.51 31.5451ZM51.5296 44.1187C51.063 44.5853 50.3078 44.5874 49.8385 44.1262C49.2965 43.5519 40.36 34.081 39.862 33.5533C40.2798 33.2431 40.6542 32.8687 40.9648 32.4505L51.5378 42.4277C51.9994 42.8975 51.9969 43.6513 51.5296 44.1187Z" fill="white"/>
</g>
<defs>
<clipPath id="clip0_67_1932">
<rect width="36" height="36" fill="white" transform="translate(18 18)"/>
</clipPath>
</defs>
</svg>
