<svg width="72" height="71" viewBox="0 0 72 71" fill="none" xmlns="http://www.w3.org/2000/svg">
<circle cx="36.1666" cy="35.5" r="35.5" fill="#6C4ED9"/>
<path d="M51.091 25.8751L46.1249 20.909C45.7029 20.487 45.1306 20.25 44.5338 20.25H35.5342L42.2842 27L38.5797 30.7045C37.871 31.4132 38.3729 32.625 39.3752 32.625H39.8853L27.0291 44.5627L20.25 37.7842V44.5338C20.25 45.1305 20.4871 45.7029 20.909 46.1248L26.2047 51.4205C26.4157 51.6315 26.7018 51.75 27.0002 51.75H50.625C51.2463 51.75 51.75 51.2463 51.75 50.625V27.4662C51.75 26.8694 51.513 26.2971 51.091 25.8751ZM40.9658 22.5H44.5342L47.9092 25.875H44.3408L40.9658 22.5ZM22.5 43.2158L25.875 46.5912V47.9092L22.5 44.5342V43.2158ZM28.125 49.5V46.6155L43.5153 32.3244C44.2646 31.6286 43.7723 30.375 42.7499 30.375H42.0908L44.3408 28.125H49.5V49.5H28.125Z" fill="white"/>
<path d="M36.7953 33.4205C37.504 32.7118 37.0021 31.5 35.9999 31.5H35.3408L39.0453 27.7955C39.4847 27.3562 39.4847 26.6438 39.0453 26.2045L33.0908 20.25H21.375C20.7537 20.25 20.25 20.7537 20.25 21.375V36L26.2045 41.9545C26.6438 42.3938 27.3562 42.3938 27.7955 41.9545L36.7953 33.4205ZM32.6252 33.75H33.2842L28.125 38.4434V28.125H35.5342L31.8297 31.8295C31.121 32.5382 31.6229 33.75 32.6252 33.75ZM35.5342 25.875H27.4658L24.0908 22.5H32.1592L35.5342 25.875ZM22.5 24.0908L25.875 27.4658V38.4434L22.5 35.0684V24.0908Z" fill="white"/>
</svg>
