<svg width="71" height="71" viewBox="0 0 71 71" fill="none" xmlns="http://www.w3.org/2000/svg">
<circle cx="35.5" cy="35.5" r="35.5" fill="#6C4ED9"/>
<path d="M40.4307 49.4038C40.536 48.6002 40.8268 47.832 41.2799 47.1601C41.2906 47.1406 41.3003 47.1205 41.3086 47.0999C51.0146 41.4047 51.5946 28.9601 51.5993 28.822C51.6098 28.5431 51.4264 28.294 51.1569 28.2211C50.0227 27.9086 48.9435 27.4228 47.9576 26.7808C48.1005 26.1259 47.8672 25.446 47.3523 25.0168C46.8374 24.5876 46.1265 24.4806 45.5081 24.7392C44.8081 23.9956 44.1861 23.1825 43.6517 22.3123C43.6417 22.2962 43.6312 22.2806 43.6201 22.2654C43.2133 21.6195 42.8646 20.939 42.5778 20.2316C42.3496 18.7018 39.0666 18 36 18C32.9333 18 29.6503 18.7018 29.4221 20.2316C29.1353 20.939 28.7866 21.6195 28.3798 22.2654C28.3687 22.2806 28.3582 22.2962 28.3482 22.3123C27.8138 23.1825 27.1918 23.9956 26.4918 24.7392C25.8733 24.4786 25.1611 24.5848 24.6457 25.0145C24.1302 25.4442 23.8974 26.1256 24.0423 26.7809C23.0564 27.4229 21.9772 27.9086 20.843 28.2212C20.5736 28.294 20.3902 28.5432 20.4006 28.8221C20.4054 28.9602 20.9852 41.404 30.6914 47.0999C30.6997 47.1206 30.7093 47.1407 30.7201 47.1601C31.17 47.8336 31.4593 48.6013 31.5658 49.4042C27.7418 49.7609 25.7999 50.4984 25.7999 51.6001C25.7999 53.8843 34.2966 54 36 54C37.7033 54 46.2 53.8843 46.2 51.6C46.2 50.4979 44.257 49.7604 40.4307 49.4038ZM46.2 25.8C46.5312 25.8003 46.7997 26.0687 46.8 26.4C46.8 26.7313 46.5314 26.9999 46.2 26.9999C45.8686 26.9999 45.6 26.7313 45.6 26.4C45.6 26.0686 45.8686 25.8 46.2 25.8ZM45 28.5C45 28.997 44.597 29.4 44.1 29.4C43.6031 29.3994 43.2005 28.9968 43.2 28.5C43.2 28.0029 43.6029 27.6 44.1 27.6C44.597 27.6 45 28.0029 45 28.5ZM36 19.2C39.4781 19.2 41.2769 20.0604 41.3982 20.4C41.2769 20.7396 39.4781 21.6 36 21.6C32.4902 21.6 30.6908 20.724 30.5988 20.409C30.6908 20.076 32.4902 19.2 36 19.2ZM29.3508 22.9734L29.3754 22.9368V22.9371C29.6985 22.4179 29.9471 21.9542 30.1338 21.5763C30.4662 21.802 30.8271 21.9826 31.2071 22.1131C31.2489 22.1336 31.293 22.149 31.3385 22.159C32.8502 22.6109 34.4225 22.8271 36 22.7999C37.5778 22.827 39.1502 22.6108 40.662 22.1588C40.7067 22.1489 40.7501 22.1337 40.7913 22.1136C41.1719 21.983 41.5333 21.8023 41.8662 21.5762C42.0529 21.9541 42.3016 22.4178 42.6246 22.937V22.9367L42.6492 22.9733C43.2191 23.8961 43.8805 24.7592 44.6234 25.5495C44.4789 25.8098 44.4021 26.1023 44.4001 26.4C44.4001 26.4104 44.403 26.4201 44.4031 26.4306C44.303 26.413 44.2017 26.4027 44.1001 26.4C43.0242 26.4034 42.1259 27.221 42.0212 28.2917C41.8191 28.2337 41.6103 28.2029 41.4001 28.2C40.239 28.2023 39.2461 29.0358 39.0427 30.179C37.9533 29.7558 36.7153 30.0996 36.0001 31.0238C35.4931 30.3799 34.7197 30.0028 33.9001 30C33.5777 30.0023 33.2583 30.063 32.9575 30.179C32.7541 29.0358 31.7612 28.2024 30.6001 28.2C30.3899 28.2028 30.181 28.2337 29.979 28.2917C29.8744 27.221 28.976 26.4035 27.9001 26.4C27.7984 26.4027 27.6972 26.413 27.5971 26.4306C27.5972 26.4202 27.6001 26.4105 27.6001 26.4C27.5981 26.1023 27.5213 25.8098 27.3768 25.5495C28.1195 24.7593 28.7809 23.8963 29.3508 22.9734ZM42.6 30.6C42.6 31.2628 42.0627 31.8 41.4 31.8C40.7375 31.7992 40.2007 31.2625 40.1999 30.6C40.1999 29.9372 40.7372 29.4 41.4 29.4C42.0627 29.4 42.6 29.9372 42.6 30.6ZM39.6 32.7C39.6 33.5284 38.9284 34.2 38.1 34.2C37.2716 34.2 36.6 33.5284 36.6 32.7C36.6008 31.872 37.2719 31.2009 38.1 31.2C38.9284 31.2 39.6 31.8716 39.6 32.7ZM35.4 32.7C35.4 33.5284 34.7284 34.2 33.9 34.2C33.0716 34.2 32.4 33.5284 32.4 32.7C32.4009 31.872 33.0719 31.2009 33.9 31.2C34.7284 31.2 35.4 31.8716 35.4 32.7ZM31.8 30.6C31.8 31.2628 31.2627 31.8 30.6 31.8C29.9372 31.8 29.3999 31.2628 29.3999 30.6C29.4007 29.9376 29.9375 29.4008 30.6 29.4C31.2627 29.4 31.8 29.9372 31.8 30.6ZM27.9 27.6C28.397 27.6 28.8 28.0029 28.8 28.5C28.8 28.997 28.397 29.4 27.9 29.4C27.4029 29.4 27 28.997 27 28.5C27.0005 28.0031 27.4031 27.6005 27.9 27.6ZM25.7999 25.8C26.1313 25.8 26.3999 26.0686 26.3999 26.4C26.3999 26.7313 26.1313 26.9999 25.7999 26.9999C25.4686 26.9999 25.2 26.7313 25.2 26.4C25.2003 26.0688 25.4688 25.8003 25.7999 25.8ZM21.6339 29.2395C22.7093 28.8974 23.734 28.4127 24.6806 27.7985C24.9968 28.0565 25.3918 28.1983 25.7999 28.2C25.8105 28.2 25.8201 28.1971 25.8305 28.1969C25.8129 28.2971 25.8027 28.3984 25.7999 28.5C25.8013 29.6593 26.7407 30.5987 27.9 30.6001C28.0016 30.5973 28.1029 30.5871 28.203 30.5694C28.2029 30.5799 28.1999 30.5895 28.1999 30.6001C28.2013 31.925 29.275 32.9986 30.5999 33C30.8101 32.9972 31.0189 32.9663 31.221 32.9083C31.2984 34.0133 32.0478 34.9567 33.1067 35.282C34.1656 35.6072 35.3155 35.2472 35.9998 34.3761C36.6842 35.2472 37.834 35.6072 38.8929 35.282C39.9518 34.9567 40.7013 34.0133 40.7787 32.9083C40.9808 32.9663 41.1896 32.9971 41.3997 33C42.7246 32.9986 43.7983 31.925 43.7997 30.6001C43.7997 30.5895 43.7968 30.5799 43.7966 30.5694C43.8968 30.5871 43.9981 30.5973 44.0997 30.6001C45.2589 30.5987 46.1983 29.6593 46.1997 28.5C46.197 28.3984 46.1867 28.2971 46.1691 28.1969C46.1795 28.1971 46.1892 28.2 46.1997 28.2C46.6078 28.1983 47.003 28.0565 47.3191 27.7985C48.2658 28.4129 49.2907 28.8975 50.3663 29.2395C50.1396 31.7409 48.4913 43.6732 37.6081 47.4936C36.5668 47.8552 35.434 47.8555 34.3925 47.4942C23.5242 43.6787 21.8636 31.7417 21.6339 29.2395ZM36 52.8C30.7769 52.8 27.7722 52.0637 27.0954 51.6029C27.4748 51.3544 28.7186 50.8851 31.5841 50.6076C31.5551 50.8883 31.5022 51.1659 31.4261 51.4377C31.3673 51.6444 31.4235 51.8667 31.5734 52.0207C31.7233 52.1747 31.9441 52.2367 32.1523 52.1833C32.3605 52.13 32.5243 51.9694 32.5816 51.7623C32.9272 50.5269 32.8855 49.2153 32.462 48.0045C32.9556 48.2269 33.4619 48.439 33.9967 48.6266C35.2947 49.0769 36.7066 49.0766 38.0045 48.6261C38.5389 48.4385 39.0447 48.2266 39.538 48.0044C39.1145 49.2153 39.0728 50.5269 39.4183 51.7623C39.4757 51.9694 39.6395 52.13 39.8477 52.1833C40.0559 52.2367 40.2766 52.1747 40.4266 52.0207C40.5765 51.8667 40.6327 51.6444 40.5739 51.4377C40.4976 51.1659 40.4444 50.8882 40.4147 50.6075C43.281 50.8849 44.5251 51.3544 44.9045 51.6029C44.2277 52.0638 41.223 52.8 36 52.8Z" fill="white"/>
</svg>
