<svg width="71" height="71" viewBox="0 0 71 71" fill="none" xmlns="http://www.w3.org/2000/svg">
<circle cx="35.5" cy="35.5" r="35.5" fill="#6C4ED9"/>
<path fill-rule="evenodd" clip-rule="evenodd" d="M35 22.5C27.5442 22.5 21.5 28.5442 21.5 36C21.5 36.8284 20.8284 37.5 20 37.5C19.1716 37.5 18.5 36.8284 18.5 36C18.5 26.8873 25.8873 19.5 35 19.5C39.7293 19.5 43.9928 21.4902 47 24.6755V21C47 20.1716 47.6716 19.5 48.5 19.5C49.3284 19.5 50 20.1716 50 21V28.5C50 29.3284 49.3284 30 48.5 30H48.0219C48.0038 30.0003 47.9855 30.0003 47.9674 30H41C40.1716 30 39.5 29.3284 39.5 28.5C39.5 27.6716 40.1716 27 41 27H45.0627C42.5896 24.2365 38.997 22.5 35 22.5ZM35 49.5C42.4559 49.5 48.5 43.4559 48.5 36C48.5 35.1715 49.1716 34.5 50 34.5C50.8284 34.5 51.5 35.1715 51.5 36C51.5 45.1126 44.1126 52.5 35 52.5C30.2706 52.5 26.0072 50.5098 23 47.3246V51C23 51.8284 22.3284 52.5 21.5 52.5C20.6716 52.5 20 51.8284 20 51V43.5C20 42.6716 20.6716 42 21.5 42H21.978C21.9962 41.9997 22.0145 41.9997 22.0327 42H29C29.8284 42 30.5 42.6716 30.5 43.5C30.5 44.3284 29.8284 45 29 45H24.9373C27.4105 47.7635 31.003 49.5 35 49.5Z" fill="white"/>
</svg>
