<svg width="71" height="71" viewBox="0 0 71 71" fill="none" xmlns="http://www.w3.org/2000/svg">
<circle cx="35.5" cy="35.5" r="35.5" fill="#6C4ED9"/>
<g clip-path="url(#clip0_70_1154)">
<mask id="path-2-outside-1_70_1154" maskUnits="userSpaceOnUse" x="16" y="19.7295" width="38" height="30" fill="black">
<rect fill="white" x="16" y="19.7295" width="38" height="30"/>
<path d="M53 32.1706C52.9996 31.9965 52.9066 31.8358 52.7558 31.7492L50.2827 30.3288L52.7568 28.9008C52.9075 28.8136 53.0004 28.6528 53 28.4787C52.9996 28.3047 52.9066 28.1441 52.7558 28.0575C48.5399 25.6373 44.3244 23.2161 40.109 20.7942C39.9586 20.7077 39.7739 20.7079 39.6235 20.7947L17.2436 33.716C17.0928 33.8029 17 33.9639 17.0004 34.1378C17.0007 34.3118 17.0934 34.4724 17.2445 34.5592C18.0688 35.0328 18.8932 35.5058 19.7174 35.9794L17.2432 37.4077C17.0925 37.4946 16.9996 37.6556 17 37.8295C17.0004 38.0035 17.0934 38.1642 17.2442 38.2508L19.7172 39.6712L17.2432 41.0993C17.0925 41.1864 16.9996 41.3473 17 41.5211C17.0004 41.6952 17.0934 41.8559 17.2442 41.9425L29.891 49.2058C29.966 49.2489 30.0496 49.2704 30.1333 49.2704C30.2172 49.2704 30.3011 49.2487 30.3765 49.2052L52.7567 36.284C52.9075 36.1971 53.0003 36.0361 52.9999 35.8621C52.9996 35.6882 52.9065 35.5275 52.7557 35.4409L50.2827 34.0206L52.7567 32.5923C52.9075 32.5053 53.0004 32.3444 53 32.1706ZM39.8674 21.7775C43.7574 24.0124 47.6477 26.2467 51.5383 28.4804L43.1147 33.3425C42.8467 33.1908 42.3551 32.9097 41.7158 32.5432L46.5046 29.7799C46.6196 29.7134 46.7025 29.6029 46.7339 29.4738C46.7655 29.3449 46.7428 29.2085 46.6712 29.0966C46.5682 28.9353 46.4171 28.6147 46.5635 28.2788C46.6622 28.0515 46.5742 27.7862 46.3595 27.6629L41.1823 24.6874C41.0569 24.6155 40.9058 24.6028 40.7699 24.6535C40.1048 24.9019 39.1971 24.8626 38.4582 24.5539C38.3188 24.496 38.1589 24.5054 38.0274 24.5816L32.9599 27.5078C32.7733 27.4004 32.5943 27.2973 32.429 27.2021L31.448 26.6374L39.8674 21.7775ZM45.6296 29.1614L40.7396 31.983C38.747 30.839 36.0022 29.2593 33.9346 28.069L38.3135 25.54C39.1513 25.8328 40.0986 25.8696 40.886 25.6394L45.5488 28.3193C45.5076 28.5962 45.5351 28.8828 45.6296 29.1614ZM26.876 29.2766C27.346 29.5466 27.816 29.8164 28.2861 30.0864L23.5055 32.848C23.3905 32.9144 23.3075 33.0249 23.2762 33.154C23.2445 33.2831 23.2673 33.4192 23.3389 33.5312C23.4418 33.6924 23.5929 34.0131 23.4469 34.3486C23.3481 34.5759 23.4361 34.8412 23.6509 34.9645L28.8264 37.9353C28.9515 38.0074 29.1032 38.0199 29.2388 37.9692C29.9033 37.7211 30.811 37.7601 31.5509 38.0684C31.6107 38.0936 31.6744 38.1059 31.7381 38.1059C31.8223 38.1059 31.9065 38.0841 31.9813 38.0407L32.7788 37.5801C34.2014 36.7585 35.6238 35.9371 37.0467 35.1164L38.5484 35.9784L30.1325 40.839C26.2419 38.6056 22.3509 36.3712 18.4612 34.1362L26.876 29.2766ZM24.3806 33.4661L29.2614 30.6465C31.3201 31.8288 33.3789 33.0111 35.4377 34.1929L36.071 34.5564C34.8112 35.2832 33.5517 36.0103 32.2923 36.7376L31.6953 37.0825C30.857 36.7897 29.9103 36.7537 29.1226 36.9835L24.4617 34.3081C24.5026 34.0313 24.475 33.7447 24.3806 33.4661ZM20.6928 36.5396C23.7587 38.3008 26.8246 40.062 29.891 41.8222C29.966 41.8653 30.0496 41.8868 30.1333 41.8868C30.2172 41.8868 30.3014 41.8651 30.3765 41.8216L39.0383 36.819L39.0444 39.3858L30.1326 44.5308L18.4614 37.8278L20.6928 36.5396ZM30.1326 48.2226L18.4614 41.5196L20.693 40.2315L29.891 45.5141C29.966 45.5572 30.0496 45.5787 30.1333 45.5787C30.2172 45.5787 30.3011 45.557 30.3765 45.5135L39.0472 40.5075L39.0534 43.0724L30.1326 48.2226ZM40.0251 42.5114L40.0093 35.9757C40.009 35.8018 39.9158 35.6413 39.7651 35.5549C39.7651 35.5549 30.5402 30.2598 27.85 28.7141L30.4743 27.1995C30.4743 27.1995 41.8235 33.7338 42.6336 34.1757L42.6473 40.9972L40.0251 42.5114ZM51.5386 35.8639L43.6191 40.4364L43.614 37.8709L49.3085 34.5832L51.5386 35.8639ZM43.6117 36.7488L43.6065 34.1823L49.3082 30.8912L51.5386 32.1721L43.6117 36.7488ZM28.7178 35.0779C28.5835 34.8453 28.663 34.5477 28.8958 34.4135L31.0271 33.1829C31.2592 33.0483 31.5573 33.1279 31.6915 33.3609C31.8258 33.5936 31.7463 33.8911 31.5135 34.0253L29.3822 35.2559C29.3056 35.3003 29.222 35.3212 29.1393 35.3212C28.9715 35.3211 28.8077 35.2341 28.7178 35.0779ZM41.5631 27.6609C41.6974 27.8935 41.6179 28.1911 41.3851 28.3253L39.5107 29.4076C39.434 29.4519 39.3504 29.4728 39.2678 29.4728C39.0999 29.4728 38.9362 29.3857 38.8462 29.2296C38.7119 28.9969 38.7915 28.6994 39.0243 28.5652L40.8987 27.4829C41.1311 27.3485 41.4288 27.4278 41.5631 27.6609Z"/>
</mask>
<path d="M53 32.1706C52.9996 31.9965 52.9066 31.8358 52.7558 31.7492L50.2827 30.3288L52.7568 28.9008C52.9075 28.8136 53.0004 28.6528 53 28.4787C52.9996 28.3047 52.9066 28.1441 52.7558 28.0575C48.5399 25.6373 44.3244 23.2161 40.109 20.7942C39.9586 20.7077 39.7739 20.7079 39.6235 20.7947L17.2436 33.716C17.0928 33.8029 17 33.9639 17.0004 34.1378C17.0007 34.3118 17.0934 34.4724 17.2445 34.5592C18.0688 35.0328 18.8932 35.5058 19.7174 35.9794L17.2432 37.4077C17.0925 37.4946 16.9996 37.6556 17 37.8295C17.0004 38.0035 17.0934 38.1642 17.2442 38.2508L19.7172 39.6712L17.2432 41.0993C17.0925 41.1864 16.9996 41.3473 17 41.5211C17.0004 41.6952 17.0934 41.8559 17.2442 41.9425L29.891 49.2058C29.966 49.2489 30.0496 49.2704 30.1333 49.2704C30.2172 49.2704 30.3011 49.2487 30.3765 49.2052L52.7567 36.284C52.9075 36.1971 53.0003 36.0361 52.9999 35.8621C52.9996 35.6882 52.9065 35.5275 52.7557 35.4409L50.2827 34.0206L52.7567 32.5923C52.9075 32.5053 53.0004 32.3444 53 32.1706ZM39.8674 21.7775C43.7574 24.0124 47.6477 26.2467 51.5383 28.4804L43.1147 33.3425C42.8467 33.1908 42.3551 32.9097 41.7158 32.5432L46.5046 29.7799C46.6196 29.7134 46.7025 29.6029 46.7339 29.4738C46.7655 29.3449 46.7428 29.2085 46.6712 29.0966C46.5682 28.9353 46.4171 28.6147 46.5635 28.2788C46.6622 28.0515 46.5742 27.7862 46.3595 27.6629L41.1823 24.6874C41.0569 24.6155 40.9058 24.6028 40.7699 24.6535C40.1048 24.9019 39.1971 24.8626 38.4582 24.5539C38.3188 24.496 38.1589 24.5054 38.0274 24.5816L32.9599 27.5078C32.7733 27.4004 32.5943 27.2973 32.429 27.2021L31.448 26.6374L39.8674 21.7775ZM45.6296 29.1614L40.7396 31.983C38.747 30.839 36.0022 29.2593 33.9346 28.069L38.3135 25.54C39.1513 25.8328 40.0986 25.8696 40.886 25.6394L45.5488 28.3193C45.5076 28.5962 45.5351 28.8828 45.6296 29.1614ZM26.876 29.2766C27.346 29.5466 27.816 29.8164 28.2861 30.0864L23.5055 32.848C23.3905 32.9144 23.3075 33.0249 23.2762 33.154C23.2445 33.2831 23.2673 33.4192 23.3389 33.5312C23.4418 33.6924 23.5929 34.0131 23.4469 34.3486C23.3481 34.5759 23.4361 34.8412 23.6509 34.9645L28.8264 37.9353C28.9515 38.0074 29.1032 38.0199 29.2388 37.9692C29.9033 37.7211 30.811 37.7601 31.5509 38.0684C31.6107 38.0936 31.6744 38.1059 31.7381 38.1059C31.8223 38.1059 31.9065 38.0841 31.9813 38.0407L32.7788 37.5801C34.2014 36.7585 35.6238 35.9371 37.0467 35.1164L38.5484 35.9784L30.1325 40.839C26.2419 38.6056 22.3509 36.3712 18.4612 34.1362L26.876 29.2766ZM24.3806 33.4661L29.2614 30.6465C31.3201 31.8288 33.3789 33.0111 35.4377 34.1929L36.071 34.5564C34.8112 35.2832 33.5517 36.0103 32.2923 36.7376L31.6953 37.0825C30.857 36.7897 29.9103 36.7537 29.1226 36.9835L24.4617 34.3081C24.5026 34.0313 24.475 33.7447 24.3806 33.4661ZM20.6928 36.5396C23.7587 38.3008 26.8246 40.062 29.891 41.8222C29.966 41.8653 30.0496 41.8868 30.1333 41.8868C30.2172 41.8868 30.3014 41.8651 30.3765 41.8216L39.0383 36.819L39.0444 39.3858L30.1326 44.5308L18.4614 37.8278L20.6928 36.5396ZM30.1326 48.2226L18.4614 41.5196L20.693 40.2315L29.891 45.5141C29.966 45.5572 30.0496 45.5787 30.1333 45.5787C30.2172 45.5787 30.3011 45.557 30.3765 45.5135L39.0472 40.5075L39.0534 43.0724L30.1326 48.2226ZM40.0251 42.5114L40.0093 35.9757C40.009 35.8018 39.9158 35.6413 39.7651 35.5549C39.7651 35.5549 30.5402 30.2598 27.85 28.7141L30.4743 27.1995C30.4743 27.1995 41.8235 33.7338 42.6336 34.1757L42.6473 40.9972L40.0251 42.5114ZM51.5386 35.8639L43.6191 40.4364L43.614 37.8709L49.3085 34.5832L51.5386 35.8639ZM43.6117 36.7488L43.6065 34.1823L49.3082 30.8912L51.5386 32.1721L43.6117 36.7488ZM28.7178 35.0779C28.5835 34.8453 28.663 34.5477 28.8958 34.4135L31.0271 33.1829C31.2592 33.0483 31.5573 33.1279 31.6915 33.3609C31.8258 33.5936 31.7463 33.8911 31.5135 34.0253L29.3822 35.2559C29.3056 35.3003 29.222 35.3212 29.1393 35.3212C28.9715 35.3211 28.8077 35.2341 28.7178 35.0779ZM41.5631 27.6609C41.6974 27.8935 41.6179 28.1911 41.3851 28.3253L39.5107 29.4076C39.434 29.4519 39.3504 29.4728 39.2678 29.4728C39.0999 29.4728 38.9362 29.3857 38.8462 29.2296C38.7119 28.9969 38.7915 28.6994 39.0243 28.5652L40.8987 27.4829C41.1311 27.3485 41.4288 27.4278 41.5631 27.6609Z" fill="white"/>
<path d="M53 32.1706C52.9996 31.9965 52.9066 31.8358 52.7558 31.7492L50.2827 30.3288L52.7568 28.9008C52.9075 28.8136 53.0004 28.6528 53 28.4787C52.9996 28.3047 52.9066 28.1441 52.7558 28.0575C48.5399 25.6373 44.3244 23.2161 40.109 20.7942C39.9586 20.7077 39.7739 20.7079 39.6235 20.7947L17.2436 33.716C17.0928 33.8029 17 33.9639 17.0004 34.1378C17.0007 34.3118 17.0934 34.4724 17.2445 34.5592C18.0688 35.0328 18.8932 35.5058 19.7174 35.9794L17.2432 37.4077C17.0925 37.4946 16.9996 37.6556 17 37.8295C17.0004 38.0035 17.0934 38.1642 17.2442 38.2508L19.7172 39.6712L17.2432 41.0993C17.0925 41.1864 16.9996 41.3473 17 41.5211C17.0004 41.6952 17.0934 41.8559 17.2442 41.9425L29.891 49.2058C29.966 49.2489 30.0496 49.2704 30.1333 49.2704C30.2172 49.2704 30.3011 49.2487 30.3765 49.2052L52.7567 36.284C52.9075 36.1971 53.0003 36.0361 52.9999 35.8621C52.9996 35.6882 52.9065 35.5275 52.7557 35.4409L50.2827 34.0206L52.7567 32.5923C52.9075 32.5053 53.0004 32.3444 53 32.1706ZM39.8674 21.7775C43.7574 24.0124 47.6477 26.2467 51.5383 28.4804L43.1147 33.3425C42.8467 33.1908 42.3551 32.9097 41.7158 32.5432L46.5046 29.7799C46.6196 29.7134 46.7025 29.6029 46.7339 29.4738C46.7655 29.3449 46.7428 29.2085 46.6712 29.0966C46.5682 28.9353 46.4171 28.6147 46.5635 28.2788C46.6622 28.0515 46.5742 27.7862 46.3595 27.6629L41.1823 24.6874C41.0569 24.6155 40.9058 24.6028 40.7699 24.6535C40.1048 24.9019 39.1971 24.8626 38.4582 24.5539C38.3188 24.496 38.1589 24.5054 38.0274 24.5816L32.9599 27.5078C32.7733 27.4004 32.5943 27.2973 32.429 27.2021L31.448 26.6374L39.8674 21.7775ZM45.6296 29.1614L40.7396 31.983C38.747 30.839 36.0022 29.2593 33.9346 28.069L38.3135 25.54C39.1513 25.8328 40.0986 25.8696 40.886 25.6394L45.5488 28.3193C45.5076 28.5962 45.5351 28.8828 45.6296 29.1614ZM26.876 29.2766C27.346 29.5466 27.816 29.8164 28.2861 30.0864L23.5055 32.848C23.3905 32.9144 23.3075 33.0249 23.2762 33.154C23.2445 33.2831 23.2673 33.4192 23.3389 33.5312C23.4418 33.6924 23.5929 34.0131 23.4469 34.3486C23.3481 34.5759 23.4361 34.8412 23.6509 34.9645L28.8264 37.9353C28.9515 38.0074 29.1032 38.0199 29.2388 37.9692C29.9033 37.7211 30.811 37.7601 31.5509 38.0684C31.6107 38.0936 31.6744 38.1059 31.7381 38.1059C31.8223 38.1059 31.9065 38.0841 31.9813 38.0407L32.7788 37.5801C34.2014 36.7585 35.6238 35.9371 37.0467 35.1164L38.5484 35.9784L30.1325 40.839C26.2419 38.6056 22.3509 36.3712 18.4612 34.1362L26.876 29.2766ZM24.3806 33.4661L29.2614 30.6465C31.3201 31.8288 33.3789 33.0111 35.4377 34.1929L36.071 34.5564C34.8112 35.2832 33.5517 36.0103 32.2923 36.7376L31.6953 37.0825C30.857 36.7897 29.9103 36.7537 29.1226 36.9835L24.4617 34.3081C24.5026 34.0313 24.475 33.7447 24.3806 33.4661ZM20.6928 36.5396C23.7587 38.3008 26.8246 40.062 29.891 41.8222C29.966 41.8653 30.0496 41.8868 30.1333 41.8868C30.2172 41.8868 30.3014 41.8651 30.3765 41.8216L39.0383 36.819L39.0444 39.3858L30.1326 44.5308L18.4614 37.8278L20.6928 36.5396ZM30.1326 48.2226L18.4614 41.5196L20.693 40.2315L29.891 45.5141C29.966 45.5572 30.0496 45.5787 30.1333 45.5787C30.2172 45.5787 30.3011 45.557 30.3765 45.5135L39.0472 40.5075L39.0534 43.0724L30.1326 48.2226ZM40.0251 42.5114L40.0093 35.9757C40.009 35.8018 39.9158 35.6413 39.7651 35.5549C39.7651 35.5549 30.5402 30.2598 27.85 28.7141L30.4743 27.1995C30.4743 27.1995 41.8235 33.7338 42.6336 34.1757L42.6473 40.9972L40.0251 42.5114ZM51.5386 35.8639L43.6191 40.4364L43.614 37.8709L49.3085 34.5832L51.5386 35.8639ZM43.6117 36.7488L43.6065 34.1823L49.3082 30.8912L51.5386 32.1721L43.6117 36.7488ZM28.7178 35.0779C28.5835 34.8453 28.663 34.5477 28.8958 34.4135L31.0271 33.1829C31.2592 33.0483 31.5573 33.1279 31.6915 33.3609C31.8258 33.5936 31.7463 33.8911 31.5135 34.0253L29.3822 35.2559C29.3056 35.3003 29.222 35.3212 29.1393 35.3212C28.9715 35.3211 28.8077 35.2341 28.7178 35.0779ZM41.5631 27.6609C41.6974 27.8935 41.6179 28.1911 41.3851 28.3253L39.5107 29.4076C39.434 29.4519 39.3504 29.4728 39.2678 29.4728C39.0999 29.4728 38.9362 29.3857 38.8462 29.2296C38.7119 28.9969 38.7915 28.6994 39.0243 28.5652L40.8987 27.4829C41.1311 27.3485 41.4288 27.4278 41.5631 27.6609Z" stroke="white" stroke-width="0.4" mask="url(#path-2-outside-1_70_1154)"/>
</g>
<defs>
<clipPath id="clip0_70_1154">
<rect width="36" height="36" fill="white" transform="translate(17 17)"/>
</clipPath>
</defs>
</svg>
