<svg width="71" height="71" viewBox="0 0 71 71" fill="none" xmlns="http://www.w3.org/2000/svg">
<circle cx="35.4999" cy="35.5" r="35.5" fill="#6C4ED9"/>
<g clip-path="url(#clip0_67_1946)">
<path d="M52.9485 43.3367L50.2817 28.2417C49.7296 25.1173 47.0262 22.8497 43.8536 22.8497H40.0807C40.6512 22.0388 40.9875 21.052 40.9875 19.9875C40.9875 17.2374 38.75 15 35.9999 15C33.2499 15 31.0124 17.2374 31.0124 19.9875C31.0124 21.0521 31.3487 22.0389 31.9191 22.8498H28.1463C24.9737 22.8498 22.2702 25.1174 21.7182 28.2417L19.0514 43.3367C18.7148 45.2421 19.235 47.185 20.4784 48.6674C21.7218 50.1499 23.5446 51 25.4796 51H46.5204C48.4554 51 50.2781 50.1498 51.5216 48.6675C52.765 47.1851 53.285 45.2421 52.9485 43.3367ZM35.9999 17.1253C37.5782 17.1253 38.8621 18.4093 38.8621 19.9875C38.8621 21.5658 37.5781 22.8498 35.9999 22.8498C34.4218 22.8498 33.1377 21.5658 33.1377 19.9875C33.1377 18.4093 34.4217 17.1253 35.9999 17.1253ZM49.8932 47.3016C49.0546 48.3013 47.8253 48.8747 46.5204 48.8747H25.4796C24.1747 48.8747 22.9454 48.3013 22.1068 47.3016C21.2683 46.3018 20.9174 44.9914 21.1444 43.7065L23.8113 28.6115C24.1836 26.5045 26.0068 24.975 28.1464 24.975H43.8537C45.9934 24.975 47.8166 26.5043 48.1888 28.6114L50.8556 43.7064C51.0826 44.9914 50.7317 46.3018 49.8932 47.3016Z" fill="#FFF4F4"/>
<path d="M32.5055 36.9249L35.1685 34.1733C35.5767 33.7516 35.5655 33.0789 35.1438 32.6707C34.722 32.2624 34.0493 32.2736 33.6411 32.6953L30.663 35.7727V33.4343C30.663 32.8474 30.1872 32.3716 29.6003 32.3716C29.0134 32.3716 28.5376 32.8474 28.5376 33.4343V40.4157C28.5376 41.0026 29.0134 41.4784 29.6003 41.4784C30.1872 41.4784 30.663 41.0026 30.663 40.4157V38.0773L33.6411 41.1547C33.8495 41.3701 34.127 41.4784 34.4049 41.4784C34.671 41.4784 34.9374 41.379 35.1438 41.1793C35.5655 40.7712 35.5765 40.0985 35.1685 39.6767L32.5055 36.9249Z" fill="#FFF4F4"/>
<path d="M42.3997 36.1624H40.8044C40.2175 36.1624 39.7417 36.6382 39.7417 37.2251C39.7417 37.812 40.2175 38.2878 40.8044 38.2878H41.3195C41.2182 38.8914 40.6921 39.3529 40.06 39.3529C39.3559 39.3529 38.7831 38.7801 38.7831 38.076V35.7738C38.7831 35.0697 39.3559 34.4968 40.06 34.4968C40.4562 34.4968 40.8234 34.6763 41.0678 34.9893C41.4288 35.4518 42.0967 35.5342 42.5593 35.1731C43.0219 34.8119 43.1042 34.1442 42.7432 33.6816C42.0933 32.8491 41.1154 32.3716 40.0601 32.3716C38.1841 32.3716 36.6578 33.8979 36.6578 35.7739V38.076C36.6578 39.952 38.1841 41.4783 40.0601 41.4783C41.9361 41.4783 43.4624 39.952 43.4624 38.076V37.2253C43.4624 36.6382 42.9866 36.1624 42.3997 36.1624Z" fill="#FFF4F4"/>
</g>
<defs>
<clipPath id="clip0_67_1946">
<rect width="36" height="36" fill="white" transform="translate(17.9999 15)"/>
</clipPath>
</defs>
</svg>
